<svg width="32" height="32" xmlns="http://www.w3.org/2000/svg">
 <title/>

 <g>
  <title>background</title>
  <rect fill="none" id="canvas_background" height="402" width="582" y="-1" x="-1"/>
 </g>
 <g>
  <title>Layer 1</title>
  <path fill="#ffffff" id="svg_1" d="m28,13a1,1 0 0 0 -1,1l0,8a1,1 0 0 1 -1,1l-20,0a1,1 0 0 1 -1,-1l0,-8a1,1 0 0 0 -2,0l0,8a3,3 0 0 0 0.88,2.12a3,3 0 0 0 2.12,0.88l20,0a3,3 0 0 0 2.12,-0.88a3,3 0 0 0 0.88,-2.12l0,-8a1,1 0 0 0 -1,-1z"/>
  <path fill="#ffffff" id="svg_2" d="m15.4,18.8a1,1 0 0 0 1.2,0l11.81,-8.86a1,1 0 0 0 0.3,-1.23a3.06,3.06 0 0 0 -0.59,-0.83a3,3 0 0 0 -2.12,-0.88l-20,0a3,3 0 0 0 -2.12,0.88a3.06,3.06 0 0 0 -0.59,0.83a1,1 0 0 0 0.3,1.23l11.81,8.86zm-9.4,-9.8l20,0a0.9,0.9 0 0 1 0.28,0l-10.28,7.75l-10.28,-7.75a0.9,0.9 0 0 1 0.28,0z"/>
 </g>
</svg>