<svg width="32" height="32" xmlns="http://www.w3.org/2000/svg">
 <title/>

 <g>
  <title>background</title>
  <rect fill="none" id="canvas_background" height="402" width="582" y="-1" x="-1"/>
 </g>
 <g>
  <title>Layer 1</title>
  <path fill="#ffffff" id="svg_1" d="m16,3a13,13 0 0 0 -3.46,25.53a1,1 0 1 0 0.53,-1.92a11,11 0 1 1 7,-0.4a15.85,15.85 0 0 0 -0.3,-3.92a6.27,6.27 0 0 0 4.91,-6.29a6.42,6.42 0 0 0 -1.05,-3.87a7.09,7.09 0 0 0 -0.4,-3.36a1,1 0 0 0 -1.1,-0.67a8,8 0 0 0 -3.37,1.28a11.35,11.35 0 0 0 -2.76,-0.38a13.09,13.09 0 0 0 -3,0.43a5.74,5.74 0 0 0 -3.38,-1.18a1,1 0 0 0 -1,0.66a7.06,7.06 0 0 0 -0.37,3.19a7.15,7.15 0 0 0 -1.05,3.9a6.66,6.66 0 0 0 5,6.28a7.43,7.43 0 0 0 -0.15,0.79c-1,0.06 -1.58,-0.55 -2.32,-1.48a3.45,3.45 0 0 0 -1.94,-1.53a1,1 0 0 0 -1.15,0.76a1,1 0 0 0 0.71,1.18c0.16,0 0.55,0.52 0.77,0.81a4.74,4.74 0 0 0 3.75,2.25a4.83,4.83 0 0 0 1.3,-0.18l0,0a1,1 0 0 0 0.29,-0.14l0,0a0.72,0.72 0 0 0 0.18,-0.21a0.34,0.34 0 0 0 0.08,-0.09a0.85,0.85 0 0 0 0.06,-0.17a1.52,1.52 0 0 0 0.06,-0.2l0,0a4.11,4.11 0 0 1 0.46,-1.91a1,1 0 0 0 -0.76,-1.65a4.6,4.6 0 0 1 -4.34,-4.51a4.84,4.84 0 0 1 0.87,-3a1,1 0 0 0 0.24,-0.83a5,5 0 0 1 0,-1.85a3.59,3.59 0 0 1 1.74,0.92a1,1 0 0 0 1,0.23a12.49,12.49 0 0 1 2.95,-0.47a9.91,9.91 0 0 1 2.65,0.43a1,1 0 0 0 1,-0.18a5,5 0 0 1 2,-1a4.11,4.11 0 0 1 0,1.91a1.05,1.05 0 0 0 0.32,1a4,4 0 0 1 0.71,2.84a4.29,4.29 0 0 1 -4.41,4.46a1,1 0 0 0 -0.94,0.65a1,1 0 0 0 0.28,1.11c0.59,0.51 0.5,4 0.47,5.36a1,1 0 0 0 0.38,0.81a1,1 0 0 0 0.62,0.21a1.07,1.07 0 0 0 0.25,0a13,13 0 0 0 -3.33,-25.6z"/>
 </g>
</svg>