<svg width="32" height="32" xmlns="http://www.w3.org/2000/svg">
 <title/>

 <g>
  <title>background</title>
  <rect fill="none" id="canvas_background" height="402" width="582" y="-1" x="-1"/>
 </g>
 <g>
  <title>Layer 1</title>
  <path fill="#ffffff" id="svg_1" d="m28.77,8.11a0.87,0.87 0 0 0 -0.23,-0.2a4.69,4.69 0 0 0 0.46,-1.37a1,1 0 0 0 -0.44,-1a1,1 0 0 0 -1.1,0a6.42,6.42 0 0 1 -2.28,0.92a6.21,6.21 0 0 0 -7.08,-1a6.07,6.07 0 0 0 -3.1,6.74a1,1 0 0 0 2,-0.4a4.08,4.08 0 0 1 2,-4.52a4.24,4.24 0 0 1 5.12,1a1,1 0 0 0 0.88,0.28l0.25,0a1,1 0 0 0 0.34,1.62a1,1 0 0 0 -0.36,0.88a13.07,13.07 0 0 1 -4.89,11.24a12.75,12.75 0 0 1 -12.65,2.31a9.06,9.06 0 0 0 4.54,-2.18a1,1 0 0 0 0.15,-1.09a1,1 0 0 0 -0.93,-0.57a4,4 0 0 1 -3,-1.39a3.63,3.63 0 0 0 1,-0.35a1,1 0 0 0 0.55,-1.03a1,1 0 0 0 -0.76,-0.84a4.42,4.42 0 0 1 -3,-2.48c0.24,0 0.48,0.05 0.74,0.06a1,1 0 0 0 1,-0.62a1,1 0 0 0 -0.31,-1.12c-1.67,-1.52 -2.08,-3.15 -1.84,-4.3a13.88,13.88 0 0 0 7,4a1,1 0 1 0 0.38,-2a12.1,12.1 0 0 1 -6.82,-4.39a1,1 0 0 0 -0.75,-0.38a1,1 0 0 0 -0.78,0.33a5.34,5.34 0 0 0 -0.31,6l-0.09,0a1,1 0 0 0 -0.52,0.81a5.84,5.84 0 0 0 1.95,4.47a1,1 0 0 0 -0.18,1a6.63,6.63 0 0 0 3.18,3.57a13.89,13.89 0 0 1 -4.89,0.89a1,1 0 0 0 -0.5,1.86a16.84,16.84 0 0 0 8.5,2.49a15.16,15.16 0 0 0 9.6,-3.57a15.12,15.12 0 0 0 5.69,-12.42a4.62,4.62 0 0 0 1.62,-2.25a1,1 0 0 0 -0.14,-1z"/>
 </g>
</svg>