<svg width="23.999999999999996" height="23.999999999999996" xmlns="http://www.w3.org/2000/svg">

 <g>
  <title>background</title>
  <rect fill="none" id="canvas_background" height="402" width="582" y="-1" x="-1"/>
 </g>
 <g>
  <title>Layer 1</title>
  <path fill="#ffffff" id="svg_3" d="m19.6,23.5l-15.4,0c-2.1,0 -3.8,-1.7 -3.8,-3.8l0,-15.4c0,-2.1 1.7,-3.8 3.8,-3.8l15.3,0c2.1,0 3.8,1.7 3.8,3.8l0,15.3c0.1,2.2 -1.6,3.9 -3.7,3.9zm-15.4,-22c-1.6,0 -2.8,1.3 -2.8,2.8l0,15.3c0,1.6 1.3,2.8 2.8,2.8l15.3,0c1.6,0 2.8,-1.3 2.8,-2.8l0,-15.3c0,-1.6 -1.3,-2.8 -2.8,-2.8l-15.3,0z"/>
  <path fill="#ffffff" id="svg_7" d="m7.8,17.9c-0.3,0 -0.5,-0.2 -0.5,-0.5l0,-10.8c0,-0.2 0.2,-0.4 0.4,-0.5c0.2,-0.1 0.4,0 0.6,0.2l4.1,6.9c0.1,0.2 0.1,0.5 -0.2,0.7c-0.2,0.1 -0.5,0.1 -0.7,-0.2l-3.2,-5.3l0,8.9c0,0.4 -0.3,0.6 -0.5,0.6z"/>
  <path fill="#ffffff" id="svg_9" d="m9.3,17.9l-3,0c-0.3,0 -0.5,-0.2 -0.5,-0.5s0.2,-0.5 0.5,-0.5l3,0c0.3,0 0.5,0.2 0.5,0.5s-0.2,0.5 -0.5,0.5z"/>
  <path fill="#ffffff" id="svg_11" d="m7.8,7.1l-1.5,0c-0.3,0 -0.5,-0.2 -0.5,-0.5s0.2,-0.5 0.5,-0.5l1.5,0c0.3,0 0.5,0.2 0.5,0.5s-0.3,0.5 -0.5,0.5z"/>
  <path fill="#ffffff" id="svg_14" d="m16,17.9c-0.3,0 -0.5,-0.2 -0.5,-0.5l0,-9l-3.2,5.3c-0.1,0.2 -0.4,0.3 -0.7,0.2c-0.2,-0.1 -0.3,-0.4 -0.2,-0.7l4.1,-6.9c0.1,-0.2 0.3,-0.3 0.6,-0.2c0.2,0.1 0.4,0.3 0.4,0.5l0,10.8c0,0.3 -0.2,0.5 -0.5,0.5z"/>
  <path fill="#ffffff" id="svg_16" d="m17.5,17.865675l-3,0c-0.3,0 -0.5,-0.2 -0.5,-0.5s0.2,-0.5 0.5,-0.5l3,0c0.3,0 0.5,0.2 0.5,0.5s-0.2,0.5 -0.5,0.5z"/>
  <path fill="#ffffff" id="svg_18" d="m17.5,7.065675l-1.5,0c-0.3,0 -0.5,-0.2 -0.5,-0.5s0.2,-0.5 0.5,-0.5l1.5,0c0.3,0 0.5,0.2 0.5,0.5s-0.2,0.5 -0.5,0.5z"/>
 </g>
</svg>